<?xml version="1.0" encoding="utf-8"?>
<!-- Generator: Adobe Illustrator 16.0.4, SVG Export Plug-In . SVG Version: 6.00 Build 0)  -->
<!DOCTYPE svg PUBLIC "-//W3C//DTD SVG 1.1//EN" "http://www.w3.org/Graphics/SVG/1.1/DTD/svg11.dtd">
<svg version="1.1" id="Layer_1" xmlns="http://www.w3.org/2000/svg" xmlns:xlink="http://www.w3.org/1999/xlink" x="0px" y="0px"
	 width="40px" height="40px" viewBox="0 0 40 40" enable-background="new 0 0 40 40" xml:space="preserve">
<g>
	<g>
		<rect id="SVGID_1_" fill="#797979" width="40" height="40"/>
	</g>
</g>
<g>
	<rect x="10.053" y="28.051" fill="#FFFFFF" width="19.896" height="3.646"/>
	<rect x="10.579" y="31.954" fill="#FFFFFF" width="18.843" height="0.748"/>
	<g>
		<g>
			<path fill="#FFFFFF" d="M23.617,7.314l-6.889-0.016c0,0-1.913-0.027-1.913,1.794v16.2c0,0,0,1.638,1.913,1.638h6.889
				c0,0,1.758-0.096,1.758-1.638l0.025-16.2C25.4,9.093,25.4,7.314,23.617,7.314z M20.108,8.061c0.123,0,0.219,0.1,0.219,0.221
				c0,0.12-0.096,0.219-0.219,0.219c-0.122,0-0.22-0.099-0.22-0.219C19.888,8.161,19.986,8.061,20.108,8.061z M20.108,25.991
				c-0.442,0-0.8-0.357-0.8-0.798c0-0.442,0.358-0.799,0.8-0.799c0.44,0,0.798,0.355,0.798,0.799
				C20.906,25.634,20.548,25.991,20.108,25.991z M24.445,23.598h-8.732l0.027-13.68h8.732L24.445,23.598z"/>
		</g>
		<rect x="15.323" y="9.367" opacity="0.15" fill="#FFFFFF" enable-background="new    " width="9.417" height="14.554"/>
	</g>
</g>
</svg>
