<?xml version="1.0" encoding="utf-8"?>
<!-- Generator: Adobe Illustrator 16.0.4, SVG Export Plug-In . SVG Version: 6.00 Build 0)  -->
<!DOCTYPE svg PUBLIC "-//W3C//DTD SVG 1.1//EN" "http://www.w3.org/Graphics/SVG/1.1/DTD/svg11.dtd">
<svg version="1.1" id="Layer_1" xmlns="http://www.w3.org/2000/svg" xmlns:xlink="http://www.w3.org/1999/xlink" x="0px" y="0px"
	 width="40px" height="40px" viewBox="0 0 40 40" enable-background="new 0 0 40 40" xml:space="preserve">
<rect id="background_fixed_color_19_" fill="#ABAFB0" width="40" height="40"/>
<path fill="#FFFFFF" d="M19.887,7.903c-6.664,0-12.086,5.422-12.086,12.086c0,6.663,5.422,12.086,12.086,12.086
	c6.664,0,12.085-5.423,12.085-12.086C31.973,13.325,26.551,7.903,19.887,7.903z M19.349,29.677l-0.264,1.435
	c-5.78-0.413-10.36-5.236-10.36-11.121c0-2.788,1.034-5.333,2.729-7.291l0.551,2.753l-0.616,1.181v1.798l2.31,3.285l1.901,0.771
	l1.591,1.337h0.975v0.719L17.653,24.9v1.388l0.821,1.078l0.874,0.462L19.349,29.677L19.349,29.677z M20.376,31.128l3.338-3.249
	l0.41-2.465l-1.231-0.41l-0.359-0.977l-1.695-0.873h-3.44v-0.719h-0.924v-1.078h-0.41l-0.309,0.563l-0.822-0.461v-1.027l0.668-0.668
	h1.591l0.513,0.924h0.462l-0.204-1.386l1.078-0.872l0.206-0.977l1.386-0.923l0.053-0.719l0.256-0.412l1.746,0.051l-0.053-0.717
	l-2.104-2.209h-0.719v1.181l-0.514,0.515v0.616h-0.616v-0.873L17.5,13.348v-0.823l0.795-0.796h0.796l0.977-0.95h0.616l0.258,0.668
	l-0.258,0.41l0.668,0.668l0.926-0.718l-1.594-1.849l-2.31-1.016c0.496-0.067,0.999-0.115,1.513-0.115
	c0.679,0,1.339,0.071,1.985,0.187l-0.06,0.943l1.336,0.719v1.95l0.976,1.232l0.617-1.026l1.077-0.309l0.412-1.708
	c2.612,1.813,4.422,4.708,4.761,8.034l-1.425-0.062h-1.231l-1.565,1.568v2.797l1.053,0.822l1.027,0.256l0.104,2.221
	C28.953,26.453,24.521,30.945,20.376,31.128z"/>
</svg>
