<?xml version="1.0" encoding="utf-8"?>
<!-- Generator: Adobe Illustrator 16.0.4, SVG Export Plug-In . SVG Version: 6.00 Build 0)  -->
<!DOCTYPE svg PUBLIC "-//W3C//DTD SVG 1.1//EN" "http://www.w3.org/Graphics/SVG/1.1/DTD/svg11.dtd">
<svg version="1.1" id="Layer_1" xmlns="http://www.w3.org/2000/svg" xmlns:xlink="http://www.w3.org/1999/xlink" x="0px" y="0px"
	 width="40px" height="40px" viewBox="0 0 40 40" enable-background="new 0 0 40 40" xml:space="preserve">
<rect id="background_fixed_color_6_" fill="#ACAFB0" width="40" height="40"/>
<path fill="#FFFFFF" d="M29.999,30.003V13.377H13.378v16.625L29.999,30.003L29.999,30.003z M9.999,26.624V9.999h16.62v1.988H11.987
	v14.637H9.999z"/>
<path fill="#ACAFAF" d="M21.878,24.5c0-2.486,0.017-5.015-0.013-7.324c-0.012-0.549,0.207-0.57,0.664-0.57
	c0.388,0.081,0.766,0.5,0.869,0.595c0.514,0.465,0.619,0.575,1.006,1.299c0.508,1.081,0.381,2.098-0.555,3.454
	c0.225-2.103-0.043-3.138-1.429-3.637c0,1.217,0,2.396,0,3.574c0,1.475,0.017,2.445-0.001,3.918
	c-0.016,1.096-1.102,1.773-2.323,1.766c-1.157-0.008-2.048-0.645-2.066-1.659c-0.021-1.04,0.926-1.698,2.088-1.718
	C20.529,24.188,21.379,24.163,21.878,24.5z"/>
</svg>
