<?xml version="1.0" encoding="utf-8"?>
<!-- Generator: Adobe Illustrator 16.0.4, SVG Export Plug-In . SVG Version: 6.00 Build 0)  -->
<!DOCTYPE svg PUBLIC "-//W3C//DTD SVG 1.1//EN" "http://www.w3.org/Graphics/SVG/1.1/DTD/svg11.dtd">
<svg version="1.1" id="Layer_1" xmlns="http://www.w3.org/2000/svg" xmlns:xlink="http://www.w3.org/1999/xlink" x="0px" y="0px"
	 width="40px" height="40px" viewBox="0 0 40 40" enable-background="new 0 0 40 40" xml:space="preserve">
<rect fill="#ACAFB0" width="40" height="40"/>
<path fill="#FFFFFF" d="M15.224,18.975c-0.688-0.961-1.104-2.132-1.104-3.402c0-1.271,0.417-2.441,1.104-3.404l1.002,0.712
	c-0.544,0.762-0.877,1.686-0.877,2.691c0,1.004,0.333,1.93,0.877,2.69L15.224,18.975z M12.24,21.105
	c-1.12-1.564-1.792-3.467-1.792-5.534c0-2.066,0.672-3.969,1.792-5.534l1,0.712c-0.977,1.363-1.56,3.021-1.56,4.822
	c0,1.799,0.583,3.458,1.56,4.822L12.24,21.105z M24.646,15.572c0-1.043-0.354-1.995-0.941-2.771l0.984-0.736
	c0.736,0.98,1.188,2.188,1.188,3.507c0,1.319-0.45,2.527-1.188,3.506l-0.984-0.734C24.292,17.567,24.646,16.615,24.646,15.572
	 M28.323,15.572c0-1.867-0.644-3.576-1.683-4.965l0.979-0.735c1.194,1.595,1.933,3.555,1.933,5.7s-0.736,4.104-1.933,5.702
	l-0.979-0.736C27.68,19.147,28.323,17.439,28.323,15.572"/>
<path fill="#FFFFFF" d="M21.875,15.572c0-1.034-0.839-1.874-1.873-1.874s-1.877,0.84-1.877,1.874c0,0.819,0.534,1.509,1.267,1.763
	v12.793h1.217V17.336C21.344,17.083,21.875,16.393,21.875,15.572z"/>
</svg>
