<?xml version="1.0" encoding="utf-8"?>
<!-- Generator: Adobe Illustrator 16.0.0, SVG Export Plug-In . SVG Version: 6.00 Build 0)  -->
<!DOCTYPE svg PUBLIC "-//W3C//DTD SVG 1.1 Basic//EN" "http://www.w3.org/Graphics/SVG/1.1/DTD/svg11-basic.dtd">
<svg version="1.1" baseProfile="basic" id="Layer_1"
	 xmlns="http://www.w3.org/2000/svg" xmlns:xlink="http://www.w3.org/1999/xlink" x="0px" y="0px" width="40px" height="40px"
	 viewBox="0 0 40 40" xml:space="preserve">
<rect fill="#F2F2F2" width="40" height="40"/>
<path fill="#FFFFFF" d="M15.224,18.975c-0.688-0.961-1.104-2.133-1.104-3.404c0-1.271,0.417-2.439,1.104-3.403l1.002,0.714
	c-0.544,0.76-0.877,1.685-0.877,2.689c0,1.006,0.333,1.93,0.877,2.69L15.224,18.975z M12.24,21.104
	c-1.12-1.565-1.792-3.466-1.792-5.534c0-2.064,0.672-3.969,1.792-5.533l1,0.713c-0.977,1.362-1.562,3.021-1.562,4.82
	c0,1.8,0.585,3.459,1.562,4.823L12.24,21.104z M24.645,15.57c0-1.041-0.354-1.994-0.94-2.771l0.984-0.734
	c0.736,0.979,1.188,2.188,1.188,3.505c0,1.32-0.451,2.529-1.188,3.508l-0.984-0.734C24.29,17.565,24.645,16.615,24.645,15.57
	 M28.323,15.57c0-1.867-0.645-3.575-1.682-4.963l0.979-0.735c1.195,1.595,1.933,3.556,1.933,5.698c0,2.146-0.737,4.104-1.933,5.701
	l-0.979-0.734C27.679,19.146,28.323,17.438,28.323,15.57"/>
<path fill="#FFFFFF" d="M21.875,15.57c0-1.033-0.84-1.872-1.874-1.872c-1.034,0-1.876,0.839-1.876,1.872
	c0,0.82,0.533,1.511,1.267,1.764v12.794h1.217V17.336C21.344,17.081,21.875,16.391,21.875,15.57z"/>
</svg>
