<?xml version="1.0" encoding="utf-8"?>
<!-- Generator: Adobe Illustrator 16.0.4, SVG Export Plug-In . SVG Version: 6.00 Build 0)  -->
<!DOCTYPE svg PUBLIC "-//W3C//DTD SVG 1.1//EN" "http://www.w3.org/Graphics/SVG/1.1/DTD/svg11.dtd">
<svg version="1.1" id="Layer_1" xmlns="http://www.w3.org/2000/svg" xmlns:xlink="http://www.w3.org/1999/xlink" x="0px" y="0px"
	 width="290px" height="290px" viewBox="0 0 290 290" enable-background="new 0 0 290 290" xml:space="preserve">
<rect fill="#FFFFFF" width="290" height="290"/>
<g>
	<polygon fill="#E4E5E6" points="0,118.198 171.812,290 0,290 	"/>
	<path fill="#E4E5E6" d="M290,116.464c-14.387,11.646-32.695,18.624-52.633,18.624c-46.262,0-83.766-37.496-83.766-83.771
		c0-19.332,6.578-37.139,17.588-51.316H74.532c-5.098,16.21-7.859,33.446-7.859,51.316c0,94.279,76.416,170.693,170.694,170.693
		c18.365,0,36.059-2.945,52.633-8.305V116.464z"/>
	<path fill="#E6E6E5" d="M249.998,51.316c0,6.995-5.65,12.648-12.631,12.648c-6.988,0-12.646-5.653-12.646-12.648
		c0-6.978,5.657-12.62,12.646-12.62C244.348,38.696,249.998,44.339,249.998,51.316z"/>
</g>
</svg>
