<?xml version="1.0" encoding="utf-8"?>
<!-- Generator: Adobe Illustrator 16.0.4, SVG Export Plug-In . SVG Version: 6.00 Build 0)  -->
<!DOCTYPE svg PUBLIC "-//W3C//DTD SVG 1.1//EN" "http://www.w3.org/Graphics/SVG/1.1/DTD/svg11.dtd">
<svg version="1.1" id="Layer_1" xmlns="http://www.w3.org/2000/svg" xmlns:xlink="http://www.w3.org/1999/xlink" x="0px" y="0px"
	 width="40px" height="40px" viewBox="0 0 40 40" enable-background="new 0 0 40 40" xml:space="preserve">
<rect id="background_fixed_color_18_" fill="#ACAFB0" width="40" height="40"/>
<g>
	<g>
		<path fill="#FFFFFF" d="M17.747,12.617l-1.485-2.193H7.698v19.153h24.603v-16.96H17.747z"/>
	</g>
	<path fill="#ADB0B1" d="M25.389,18.744h-0.006c0,2.551,0,5.792,0,5.792h-0.008c-0.083,0.952-1.012,1.703-2.141,1.703
		c-1.186,0-2.148-0.822-2.148-1.843c0-1.016,0.964-1.84,2.148-1.84c0.492,0,0.871,0.146,1.233,0.381v-2.484v-1.512v-1.189v-0.198
		V16.5l-5.328,1.332c0,0-0.258,0.051-0.258,0.488v0.163v0.461v1.188v0.322v4.879c0.019,0.087,0.03,0.177,0.03,0.267
		c0,0.094-0.012,0.185-0.03,0.271c0,0.034,0,0.054,0,0.054h-0.007c-0.177,0.864-1.055,1.523-2.113,1.523
		c-1.19,0-2.151-0.828-2.151-1.848c0-1.016,0.961-1.838,2.151-1.838c0.519,0,0.847,0.157,1.219,0.42
		c-0.005-2.498,0.014-6.854,0.014-7.163c0-0.435,0.094-0.539,0.633-0.719c0.898-0.181,5.625-1.148,6.118-1.254
		c0.559-0.121,0.637,0,0.637,0.718v1.792h0.006V18.744z"/>
</g>
</svg>
