<?xml version="1.0" encoding="utf-8"?>
<!-- Generator: Adobe Illustrator 16.0.4, SVG Export Plug-In . SVG Version: 6.00 Build 0)  -->
<!DOCTYPE svg PUBLIC "-//W3C//DTD SVG 1.1//EN" "http://www.w3.org/Graphics/SVG/1.1/DTD/svg11.dtd">
<svg version="1.1" id="Layer_1" xmlns="http://www.w3.org/2000/svg" xmlns:xlink="http://www.w3.org/1999/xlink" x="0px" y="0px"
	 width="40px" height="40px" viewBox="0 0 40 40" enable-background="new 0 0 40 40" xml:space="preserve">
<rect id="background_fixed_color_263_" fill="#ACAFB0" width="40" height="40"/>
<path fill="#FFFFFF" d="M19.947,24.629V10.124h1.198c0,0,0.431,2.33,2.66,3.93c2.238,2.052,2.689,3.741,1.358,7.833
	c-0.384,0.668-1.228,0.434-1.175-0.146c0.248-0.819,0.568-1.886,0.312-3.493c-0.541-2.917-2.38-2.997-2.38-2.997
	s-0.039,9.565-0.039,11.201c0,1.622-1.756,3.625-4.191,3.625c-2.807-0.022-3.602-1.367-3.602-2.948c0-2.02,1.427-3.168,2.875-3.202
	C19.813,23.861,19.947,24.629,19.947,24.629z"/>
</svg>
