<?xml version="1.0" encoding="utf-8"?>
<!-- Generator: Adobe Illustrator 16.0.4, SVG Export Plug-In . SVG Version: 6.00 Build 0)  -->
<!DOCTYPE svg PUBLIC "-//W3C//DTD SVG 1.1//EN" "http://www.w3.org/Graphics/SVG/1.1/DTD/svg11.dtd">
<svg version="1.1" id="Layer_1" xmlns="http://www.w3.org/2000/svg" xmlns:xlink="http://www.w3.org/1999/xlink" x="0px" y="0px"
	 width="40px" height="40px" viewBox="0 0 40 40" enable-background="new 0 0 40 40" xml:space="preserve">
<g>
	<g>
		<rect id="SVGID_1_" fill="#797979" width="40" height="40"/>
	</g>
</g>
<g>
	<path fill="#FFFFFF" d="M20.023,12.941c-4.604,0-8.348,3.746-8.348,8.348c0,4.604,3.744,8.348,8.348,8.348
		c4.603,0,8.348-3.744,8.348-8.348C28.371,16.687,24.626,12.941,20.023,12.941z M24.266,20.586l-3.988,1.938
		c-0.072,0.037-0.148,0.053-0.225,0.053c-0.095,0-0.191-0.025-0.275-0.078c-0.151-0.096-0.244-0.26-0.244-0.438v-6.533
		c0-0.286,0.233-0.518,0.519-0.518c0.286,0,0.517,0.232,0.517,0.518v5.707l3.242-1.578c0.258-0.125,0.566-0.017,0.692,0.239
		C24.629,20.152,24.521,20.461,24.266,20.586z"/>
	<path fill="#FFFFFF" d="M18.207,11.799c-0.637-0.781-1.162-1.437-2.288-1.437c-2.232,0-5.02,2.037-5.02,4.27
		c0,0.646,0.432,1.247,0.788,1.787C13.073,14.057,15.427,12.332,18.207,11.799z"/>
	<path fill="#FFFFFF" d="M28.337,16.383c0.351-0.531,0.765-1.118,0.765-1.75c0-2.233-2.787-4.27-5.021-4.27
		c-1.124,0-1.649,0.653-2.281,1.43C24.581,12.313,26.941,14.027,28.337,16.383z"/>
</g>
</svg>
