<?xml version="1.0" encoding="utf-8"?>
<!-- Generator: Adobe Illustrator 16.0.4, SVG Export Plug-In . SVG Version: 6.00 Build 0)  -->
<!DOCTYPE svg PUBLIC "-//W3C//DTD SVG 1.1//EN" "http://www.w3.org/Graphics/SVG/1.1/DTD/svg11.dtd">
<svg version="1.1" id="Layer_1" xmlns="http://www.w3.org/2000/svg" xmlns:xlink="http://www.w3.org/1999/xlink" x="0px" y="0px"
	 width="40px" height="40px" viewBox="0 0 40 40" enable-background="new 0 0 40 40" xml:space="preserve">
<g>
	<rect id="background_fixed_color_249_" fill="#ACAFB0" width="40" height="40"/>
	<g>
		<path fill="#FFFFFF" d="M26.482,13.936c-0.002-0.001-0.002-0.003-0.004-0.004c-0.01-0.007-0.02-0.013-0.028-0.02
			c-0.165-0.12-0.334-0.233-0.507-0.342c-0.039-0.024-0.08-0.048-0.118-0.072c-0.175-0.105-0.351-0.208-0.532-0.302
			c-0.018-0.009-0.034-0.016-0.052-0.025c-0.327-0.167-0.667-0.312-1.017-0.439c-0.094-0.034-0.186-0.071-0.279-0.103
			c-0.129-0.042-0.262-0.078-0.394-0.114c-0.14-0.039-0.28-0.076-0.423-0.109c-0.117-0.026-0.234-0.051-0.354-0.073
			c-0.174-0.032-0.35-0.058-0.526-0.081c-0.097-0.012-0.192-0.027-0.29-0.036c-0.279-0.026-0.561-0.043-0.848-0.043
			c-5.029,0-9.124,4.095-9.124,9.126c0,0.285,0.017,0.567,0.043,0.846c0.009,0.1,0.024,0.195,0.036,0.295
			c0.022,0.175,0.047,0.349,0.08,0.521c0.022,0.121,0.047,0.24,0.074,0.358c0.031,0.138,0.067,0.271,0.104,0.406
			c0.038,0.14,0.075,0.276,0.12,0.412c0.022,0.069,0.05,0.137,0.075,0.204c0.217,0.61,0.496,1.188,0.831,1.732
			c0.002,0.003,0.004,0.006,0.005,0.009c1.609,2.602,4.479,4.344,7.755,4.344c5.035,0,9.127-4.094,9.127-9.127
			C30.241,18.276,28.756,15.598,26.482,13.936z M21.113,24.898c-0.225,0-0.44-0.025-0.653-0.064
			c-0.068-0.014-0.134-0.031-0.201-0.048c-0.143-0.035-0.282-0.078-0.417-0.13c-0.072-0.027-0.145-0.055-0.214-0.086
			c-0.133-0.062-0.26-0.133-0.384-0.209c-0.069-0.043-0.14-0.082-0.206-0.131c-0.141-0.1-0.273-0.209-0.398-0.328
			c-0.074-0.069-0.141-0.147-0.209-0.225c-0.065-0.072-0.128-0.148-0.187-0.227c-0.066-0.09-0.13-0.18-0.188-0.274
			c-0.047-0.077-0.088-0.159-0.13-0.239c-0.052-0.101-0.106-0.198-0.148-0.304c0,0,0,0-0.001-0.001
			c-0.166-0.412-0.263-0.861-0.263-1.333c0-1.986,1.615-3.602,3.601-3.602c0.475,0,0.926,0.097,1.341,0.265
			c0.091,0.037,0.175,0.084,0.262,0.128c0.099,0.049,0.197,0.1,0.29,0.158c0.085,0.053,0.167,0.11,0.247,0.169
			c0.091,0.067,0.177,0.139,0.261,0.214c0.066,0.061,0.137,0.12,0.199,0.186c0.133,0.14,0.258,0.287,0.368,0.446
			c0.032,0.047,0.058,0.099,0.087,0.147c0.08,0.13,0.156,0.265,0.221,0.406c0.03,0.067,0.057,0.137,0.084,0.207
			c0.051,0.138,0.096,0.279,0.131,0.424c0.017,0.065,0.035,0.131,0.047,0.198c0.039,0.213,0.065,0.431,0.065,0.653
			C24.716,23.287,23.102,24.898,21.113,24.898z"/>
		<path fill="#FFFFFF" d="M21.113,11.182c1.009,0,1.979,0.153,2.896,0.427c-1.417-0.907-3.097-1.438-4.901-1.438
			c-5.031,0-9.125,4.091-9.125,9.127c0,1.802,0.531,3.481,1.439,4.899c-0.275-0.92-0.427-1.889-0.427-2.896
			C10.996,15.722,15.535,11.182,21.113,11.182z"/>
	</g>
</g>
</svg>
