<?xml version="1.0" encoding="utf-8"?>
<!-- Generator: Adobe Illustrator 16.0.0, SVG Export Plug-In . SVG Version: 6.00 Build 0)  -->
<!DOCTYPE svg PUBLIC "-//W3C//DTD SVG 1.1 Basic//EN" "http://www.w3.org/Graphics/SVG/1.1/DTD/svg11-basic.dtd">
<svg version="1.1" baseProfile="basic" id="Layer_1"
	 xmlns="http://www.w3.org/2000/svg" xmlns:xlink="http://www.w3.org/1999/xlink" x="0px" y="0px" width="40px" height="40px"
	 viewBox="0 0 40 40" xml:space="preserve">
<rect id="background__x28_solid_fill_-_use_your_primary_brand_color_x29_" fill="#F2F2F2" width="40" height="40"/>
<path id="artist_default" fill="#FFFFFF" d="M30,28.383c0,0,0.013-1.591-0.347-2.128c-0.838-1.26-7.778-1.869-7.461-4.924
	c0.125-1.193,0.57-2.323,0.943-2.818c0.372-0.495,0.408-0.662,0.455-1.141c0.045-0.479-0.153-0.912-0.153-0.912
	s0.039-0.914,0.151-1.367c0.109-0.451-0.459-3.492-3.649-3.49c-3.189,0.003-3.715,2.758-3.643,3.498
	c0.071,0.737,0.153,1.365,0.153,1.365s-0.191,0.557-0.151,0.914c0.038,0.354,0.101,0.763,0.456,1.138s1.005,1.69,1.065,2.818
	c0.163,3.12-6.548,3.839-7.474,4.935c-0.4,0.475-0.342,2.128-0.342,2.128L30,28.383z"/>
</svg>
