<?xml version="1.0" encoding="utf-8"?>
<!-- Generator: Adobe Illustrator 16.0.0, SVG Export Plug-In . SVG Version: 6.00 Build 0)  -->
<!DOCTYPE svg PUBLIC "-//W3C//DTD SVG 1.1 Basic//EN" "http://www.w3.org/Graphics/SVG/1.1/DTD/svg11-basic.dtd">
<svg version="1.1" baseProfile="basic" id="Layer_1"
	 xmlns="http://www.w3.org/2000/svg" xmlns:xlink="http://www.w3.org/1999/xlink" x="0px" y="0px" width="40px" height="40px"
	 viewBox="0 0 40 40" xml:space="preserve">
<rect id="background_fixed_color_263_" fill="#F2F2F2" width="40" height="40"/>
<path fill-rule="evenodd" clip-rule="evenodd" fill="#FFFFFF" d="M18.986,24.63V10.125h1.198c0,0,0.431,2.328,2.659,3.93
	c2.24,2.051,2.689,3.741,1.359,7.833c-0.383,0.667-1.227,0.433-1.174-0.146c0.246-0.819,0.566-1.885,0.312-3.494
	c-0.543-2.917-2.381-2.996-2.381-2.996s-0.039,9.565-0.039,11.201c0,1.622-1.755,3.625-4.19,3.625
	c-2.808-0.023-3.601-1.367-3.601-2.948c0-2.018,1.426-3.166,2.874-3.203C18.852,23.864,18.986,24.63,18.986,24.63z"/>
</svg>
