<?xml version="1.0" encoding="utf-8"?>
<!-- Generator: Adobe Illustrator 16.0.4, SVG Export Plug-In . SVG Version: 6.00 Build 0)  -->
<!DOCTYPE svg PUBLIC "-//W3C//DTD SVG 1.1//EN" "http://www.w3.org/Graphics/SVG/1.1/DTD/svg11.dtd">
<svg version="1.1" id="Layer_1" xmlns="http://www.w3.org/2000/svg" xmlns:xlink="http://www.w3.org/1999/xlink" x="0px" y="0px"
	 width="40px" height="40px" viewBox="0 0 40 40" enable-background="new 0 0 40 40" xml:space="preserve">
<rect id="background_fixed_color_11_" fill="#ABAFB0" width="40" height="40"/>
<g>
	<polygon fill="#919090" points="26.62,9.999 9.999,9.999 9.999,26.622 11.987,26.622 11.987,11.987 26.62,11.987 	"/>
	<path fill="#919090" d="M13.378,13.377v16.624H30V13.377H13.378z M23.85,21.953c0.227-2.102-0.041-3.138-1.428-3.637
		c0,1.217,0,2.395,0,3.571c0,1.477,0.016,2.447,0,3.92c-0.016,1.096-1.102,1.773-2.324,1.767c-1.158-0.009-2.048-0.646-2.066-1.659
		c-0.021-1.042,0.926-1.699,2.087-1.719c0.41-0.008,1.261-0.034,1.759,0.305c0-2.488,0.019-5.016-0.015-7.324
		c-0.01-0.548,0.21-0.569,0.664-0.569c0.39,0.081,0.767,0.499,0.871,0.594c0.513,0.465,0.619,0.575,1.008,1.299
		C24.911,19.581,24.786,20.598,23.85,21.953z"/>
</g>
</svg>
