<?xml version="1.0" encoding="utf-8"?>
<!-- Generator: Adobe Illustrator 16.0.4, SVG Export Plug-In . SVG Version: 6.00 Build 0)  -->
<!DOCTYPE svg PUBLIC "-//W3C//DTD SVG 1.1//EN" "http://www.w3.org/Graphics/SVG/1.1/DTD/svg11.dtd">
<svg version="1.1" id="Layer_1" xmlns="http://www.w3.org/2000/svg" xmlns:xlink="http://www.w3.org/1999/xlink" x="0px" y="0px"
	 width="40px" height="40px" viewBox="0 0 40 40" enable-background="new 0 0 40 40" xml:space="preserve">
<rect id="background_fixed_color_54_" fill="#ABAFAF" width="40" height="40"/>
<g>
	<circle fill="#FFFFFF" cx="20.001" cy="18.254" r="1.726"/>
	<polygon fill="#FFFFFF" points="21.289,32.667 18.711,32.667 17.502,24.583 17.502,21.777 22.497,21.777 22.497,24.583 	"/>
	<path fill="#FFFFFF" d="M16.627,20.478c-0.422-0.64-0.672-1.402-0.672-2.224c0-2.23,1.815-4.044,4.044-4.044
		c2.231,0,4.044,1.814,4.044,4.044c0,0.822-0.25,1.586-0.672,2.224l0.667,0.842c0.651-0.855,1.055-1.91,1.055-3.066
		c0-2.807-2.286-5.091-5.094-5.091c-2.808,0-5.091,2.284-5.091,5.091c0,1.156,0.401,2.211,1.052,3.066L16.627,20.478z"/>
	<path fill="#FFFFFF" d="M14.782,22.811c-1.069-1.225-1.741-2.807-1.741-4.557c0-3.837,3.123-6.958,6.958-6.958
		c3.839,0,6.958,3.121,6.958,6.958c0,1.75-0.669,3.332-1.739,4.557l0.673,0.85c1.31-1.428,2.116-3.322,2.116-5.405
		c0-4.416-3.594-8.006-8.008-8.006s-8.005,3.591-8.005,8.006c0,2.083,0.806,3.978,2.115,5.405L14.782,22.811z"/>
	<path fill="#FFFFFF" d="M12.937,25.141c-1.736-1.781-2.81-4.209-2.81-6.887c0-5.444,4.43-9.873,9.873-9.873
		c5.445,0,9.873,4.429,9.873,9.873c0,2.678-1.072,5.105-2.811,6.887l0.66,0.83c1.977-1.979,3.199-4.707,3.199-7.717
		c0-6.022-4.898-10.92-10.922-10.92c-6.021,0-10.921,4.898-10.921,10.92c0,3.01,1.224,5.738,3.201,7.717L12.937,25.141z"/>
</g>
</svg>
