<?xml version="1.0" encoding="utf-8"?>
<!-- Generator: Adobe Illustrator 16.0.0, SVG Export Plug-In . SVG Version: 6.00 Build 0)  -->
<!DOCTYPE svg PUBLIC "-//W3C//DTD SVG 1.1 Basic//EN" "http://www.w3.org/Graphics/SVG/1.1/DTD/svg11-basic.dtd">
<svg version="1.1" baseProfile="basic" id="Layer_1"
	 xmlns="http://www.w3.org/2000/svg" xmlns:xlink="http://www.w3.org/1999/xlink" x="0px" y="0px" width="400px" height="400px"
	 viewBox="0 0 400 400" xml:space="preserve">
<path d="M0,0h400v400H0V0z"/>
<path fill="#B6DFE4" d="M188.39,63.73c9.67-1.79,19.92-0.39,28.67,4.13c10.129,5.15,18.148,14.31,21.85,25.06
	c4.18,11.91,2.939,25.6-3.4,36.53c-6.369,11.25-17.85,19.44-30.59,21.73c-12.79,2.45-26.56-1.06-36.57-9.4
	c-9.49-7.71-15.56-19.46-16.21-31.68c-0.68-10.61,2.62-21.42,9.17-29.8C167.92,71.72,177.73,65.67,188.39,63.73z"/>
<path fill="#EA6F25" d="M75.37,165.43c36.2-0.33,72.42,0.1,108.63,0c8.67,0.15,17.7-0.86,25.971,2.42
	c14.549,5.17,25.271,19.61,25.649,35.1c0.159,11.7,0.03,23.399,0.069,35.1c0.149,2.091-0.629,4.511-2.83,5.2
	c-2.601,0.45-5.412,0.373-8.041,0.402c-37.972-0.02-75.942,0.01-113.922,0c-8.91,0-17.618-3.293-24.507-8.942
	c-8.86-7.14-14.38-18.319-14.39-29.729c0.01-11.681-0.06-23.371,0-35.049C71.82,167.9,73.3,165.68,75.37,165.43z"/>
<path fill="#76D0E9" d="M281.391,165.68c3.473-0.679,7.029-0.84,10.561-0.82c10.38,0.05,20.76-0.02,31.14,0.03
	c2.429,0,4.87,1.555,4.87,4.05c0.11,11.68,0,23.37,0.05,35.05c0.07,9.539-3.63,18.99-10.04,26.029
	c-7.27,8.109-18.039,12.95-28.939,12.909c-11.359,0-22.719,0.041-34.079-0.01c-2.743,0-4.761-2.127-4.761-4.87
	c0.021-12.04-0.069-24.079,0.051-36.119C250.779,184.59,264.41,168.92,281.391,165.68z"/>
<path fill="#4DA6DC" d="M160.3,258.33c1.53-0.48,3.16-0.262,4.74-0.311c22.02,0.09,44.05-0.069,66.069,0
	c2.75-0.223,4.703,2.293,4.57,4.932c0.021,11.359,0.029,22.729-0.011,34.09c0,9.17-3.358,18.29-9.351,25.238
	c-7.199,8.48-18.141,13.701-29.291,13.722c-11.69-0.028-23.37,0.102-35.05,0c-2.61,0.12-4.327-2.429-4.327-4.938
	c-0.06-22.381,0.01-44.75-0.03-67.121C157.493,261.811,158.04,259.2,160.3,258.33z"/>
</svg>
