<?xml version="1.0" encoding="utf-8"?>
<!-- Generator: Adobe Illustrator 16.0.4, SVG Export Plug-In . SVG Version: 6.00 Build 0)  -->
<!DOCTYPE svg PUBLIC "-//W3C//DTD SVG 1.1//EN" "http://www.w3.org/Graphics/SVG/1.1/DTD/svg11.dtd">
<svg version="1.1" id="Layer_1" xmlns="http://www.w3.org/2000/svg" xmlns:xlink="http://www.w3.org/1999/xlink" x="0px" y="0px"
	 width="40px" height="40px" viewBox="0 0 40 40" enable-background="new 0 0 40 40" xml:space="preserve">
<rect id="background_fixed_color_5_" fill="#ACAFB0" width="40" height="40"/>
<g>
	<path fill="#FFFFFF" d="M17.444,22.574c-0.458-0.668-0.678-1.5-0.545-2.362c0.28-1.802,1.962-3.031,3.759-2.752
		c0.498,0.077,0.945,0.27,1.336,0.534l4.441-4.469c-1.317-1.153-2.959-1.965-4.817-2.253c-5.215-0.809-10.098,2.763-10.906,7.981
		c-0.453,2.919,0.47,5.737,2.288,7.794L17.444,22.574z"/>
	<path fill="#FFFFFF" d="M27.327,14.408l-4.457,4.458c0.45,0.667,0.67,1.495,0.537,2.354c-0.278,1.797-1.962,3.028-3.759,2.75
		c-0.5-0.078-0.951-0.273-1.342-0.539l-4.456,4.455c1.32,1.163,2.972,1.98,4.839,2.271c5.213,0.811,10.099-2.766,10.907-7.977
		C30.047,19.267,29.132,16.461,27.327,14.408z"/>
</g>
</svg>
