<?xml version="1.0" encoding="utf-8"?>
<!-- Generator: Adobe Illustrator 16.0.4, SVG Export Plug-In . SVG Version: 6.00 Build 0)  -->
<!DOCTYPE svg PUBLIC "-//W3C//DTD SVG 1.1//EN" "http://www.w3.org/Graphics/SVG/1.1/DTD/svg11.dtd">
<svg version="1.1" id="Layer_1" xmlns="http://www.w3.org/2000/svg" xmlns:xlink="http://www.w3.org/1999/xlink" x="0px" y="0px"
	 width="40px" height="40px" viewBox="0 0 40 40" enable-background="new 0 0 40 40" xml:space="preserve">
<rect id="background_fixed_color_12_" fill="#ABAFAF" width="40" height="40"/>
<g>
	<path fill="#FFFFFF" d="M12.925,15.349c0-0.779,0.289-1.568,0.863-2.367c0.576-0.797,1.416-1.458,2.519-1.984
		c1.103-0.523,2.392-0.787,3.863-0.787c1.368,0,2.575,0.219,3.622,0.656c1.047,0.44,1.854,1.037,2.426,1.789
		c0.57,0.755,0.856,1.576,0.856,2.461c0,0.695-0.162,1.307-0.488,1.831c-0.324,0.523-0.712,0.977-1.16,1.359
		c-0.447,0.38-1.252,1.021-2.41,1.922c-0.322,0.255-0.578,0.479-0.771,0.671c-0.195,0.192-0.338,0.367-0.432,0.529
		c-0.095,0.158-0.168,0.316-0.22,0.479c-0.053,0.158-0.131,0.439-0.233,0.841c-0.18,0.854-0.74,1.278-1.685,1.278
		c-0.491,0-0.902-0.139-1.238-0.416c-0.333-0.279-0.502-0.693-0.502-1.242c0-0.688,0.124-1.284,0.368-1.789
		c0.246-0.505,0.572-0.948,0.977-1.329c0.405-0.38,0.952-0.833,1.642-1.359c0.604-0.458,1.039-0.805,1.307-1.036
		c0.271-0.234,0.496-0.495,0.682-0.781c0.184-0.287,0.275-0.599,0.275-0.935c0-0.656-0.281-1.208-0.842-1.659
		c-0.562-0.451-1.287-0.677-2.172-0.677c-1.039,0-1.802,0.227-2.292,0.682c-0.492,0.456-0.906,1.125-1.246,2.011
		c-0.32,0.927-0.929,1.388-1.825,1.388c-0.528,0-0.974-0.161-1.338-0.484C13.107,16.078,12.925,15.727,12.925,15.349z"/>
	<path fill="#FFFFFF" d="M20.022,29.789c-0.575,0-1.078-0.161-1.508-0.487c-0.428-0.321-0.643-0.774-0.643-1.356
		c0-0.519,0.208-0.949,0.622-1.305c0.416-0.352,0.925-0.527,1.529-0.527c0.594,0,1.094,0.177,1.5,0.527
		c0.404,0.354,0.606,0.786,0.606,1.305c0,0.574-0.211,1.023-0.636,1.353C21.068,29.625,20.578,29.789,20.022,29.789z"/>
</g>
</svg>
