<?xml version="1.0" encoding="utf-8"?>
<!-- Generator: Adobe Illustrator 16.0.4, SVG Export Plug-In . SVG Version: 6.00 Build 0)  -->
<!DOCTYPE svg PUBLIC "-//W3C//DTD SVG 1.1//EN" "http://www.w3.org/Graphics/SVG/1.1/DTD/svg11.dtd">
<svg version="1.1" id="Layer_1" xmlns="http://www.w3.org/2000/svg" xmlns:xlink="http://www.w3.org/1999/xlink" x="0px" y="0px"
	 width="40px" height="40px" viewBox="0 0 40 40" enable-background="new 0 0 40 40" xml:space="preserve">
<g>
	<g>
		<rect id="SVGID_1_" fill="#797979" width="40" height="40"/>
	</g>
</g>
<path fill="#FFFFFF" d="M30.027,21.641v-3.28h-2.422c-0.196-0.9-0.553-1.737-1.035-2.488l1.718-1.715l-2.319-2.318l-1.716,1.713
	c-0.75-0.48-1.588-0.836-2.485-1.031v-2.424h-3.28v2.424c-0.898,0.195-1.736,0.551-2.486,1.031l-1.716-1.713l-2.319,2.318
	l1.716,1.715c-0.482,0.751-0.837,1.588-1.034,2.488h-2.422v3.28h2.422c0.197,0.897,0.552,1.735,1.033,2.484l-1.715,1.716
	l2.319,2.319L16,26.445c0.751,0.479,1.588,0.836,2.487,1.031V29.9h3.279v-2.424c0.9-0.195,1.736-0.552,2.487-1.031l1.715,1.715
	l2.319-2.319l-1.715-1.716c0.479-0.749,0.836-1.587,1.031-2.484H30.027z M20.127,24.805c-2.654,0-4.805-2.15-4.805-4.805
	c0-2.654,2.151-4.805,4.805-4.805c2.654,0,4.807,2.151,4.807,4.805C24.934,22.652,22.781,24.805,20.127,24.805z"/>
</svg>
