<?xml version="1.0" encoding="utf-8"?>
<!-- Generator: Adobe Illustrator 16.0.4, SVG Export Plug-In . SVG Version: 6.00 Build 0)  -->
<!DOCTYPE svg PUBLIC "-//W3C//DTD SVG 1.1//EN" "http://www.w3.org/Graphics/SVG/1.1/DTD/svg11.dtd">
<svg version="1.1" id="Layer_1" xmlns="http://www.w3.org/2000/svg" xmlns:xlink="http://www.w3.org/1999/xlink" x="0px" y="0px"
	 width="40px" height="40px" viewBox="0 0 40 40" enable-background="new 0 0 40 40" xml:space="preserve">
<rect id="background_fixed_color_41_" fill="#EF6E24" width="40" height="40"/>
<g>
	<polygon fill="#FFFFFF" points="26.62,9.999 10,9.999 10,26.622 11.987,26.622 11.987,11.986 26.62,11.986 	"/>
	<path fill="#FFFFFF" d="M13.377,13.376V30H30V13.376H13.377z M23.85,21.953c0.227-2.103-0.041-3.138-1.428-3.638
		c0,1.219,0,2.396,0,3.574c0,1.475,0.016,2.444-0.001,3.92c-0.017,1.096-1.103,1.772-2.323,1.766
		c-1.158-0.008-2.048-0.646-2.066-1.66c-0.021-1.041,0.927-1.699,2.088-1.719c0.412-0.008,1.259-0.033,1.759,0.306
		c0-2.489,0.016-5.016-0.016-7.326c-0.01-0.548,0.21-0.569,0.666-0.569c0.388,0.081,0.767,0.499,0.869,0.595
		c0.513,0.463,0.617,0.575,1.008,1.298C24.913,19.58,24.786,20.598,23.85,21.953z"/>
</g>
</svg>
