<?xml version="1.0" encoding="UTF-8" standalone="no"?>
<!DOCTYPE svg  PUBLIC '-//W3C//DTD SVG 1.1//EN'  'http://www.w3.org/Graphics/SVG/1.1/DTD/svg11.dtd'>
<svg id="Layer_1" xmlns="http://www.w3.org/2000/svg" xml:space="preserve" height="40px" viewBox="0 0 40 40" width="40px" version="1.1" y="0px" x="0px" xmlns:xlink="http://www.w3.org/1999/xlink" enable-background="new 0 0 40 40">
<rect id="background_fixed_color_22_" width="40" height="40" fill="#E8A624"/>
	<path d="m22.989 18.685l-4.643 3.38v-7.141l4.643 3.761zm6.157 6.279l-9.143 5.021-0.003-0.008v0.008l-9.143-5.021 2.05-2.162c0.016 0.014 0.025 0.023 0.042 0.045-0.82-1.292-1.311-2.813-1.311-4.461 0-4.622 3.739-8.37 8.362-8.37 4.622 0 8.364 3.748 8.364 8.37 0 1.648-0.492 3.169-1.312 4.463 0.016-0.023 0.031-0.033 0.042-0.047l2.052 2.162zm-15.947-6.579c0 3.758 3.044 6.805 6.801 6.805 3.758 0 6.802-3.047 6.802-6.805 0-3.76-3.044-6.807-6.802-6.807-3.757 0-6.801 3.047-6.801 6.807z" fill="#fff"/>
</svg>
